<?xml version="1.0" standalone="no"?>
<!DOCTYPE svg PUBLIC "-//W3C//DTD SVG 20010904//EN"
 "http://www.w3.org/TR/2001/REC-SVG-20010904/DTD/svg10.dtd">
<svg version="1.0" xmlns="http://www.w3.org/2000/svg"
 width="901.000000pt" height="901.000000pt" viewBox="0 0 901.000000 901.000000"
 preserveAspectRatio="xMidYMid meet">
<metadata>
Created by potrace 1.15, written by Peter Selinger 2001-2017
</metadata>
<g transform="translate(0.000000,901.000000) scale(0.100000,-0.100000)"
fill="#000000" stroke="none">
<path d="M3805 8550 c-60 -10 -154 -28 -208 -40 -54 -12 -108 -22 -120 -24
-12 -1 -35 -8 -50 -14 -16 -7 -32 -12 -37 -12 -39 0 -437 -139 -500 -174 -14
-8 -55 -25 -90 -39 -64 -24 -210 -95 -220 -106 -3 -3 -22 -14 -43 -23 -20 -10
-79 -43 -130 -74 -50 -31 -108 -66 -127 -76 -19 -11 -43 -27 -52 -36 -10 -8
-18 -11 -18 -6 0 5 -5 1 -11 -8 -5 -10 -16 -18 -24 -18 -7 0 -15 -4 -17 -8 -4
-10 -143 -112 -152 -112 -4 0 -23 -16 -43 -35 -20 -19 -40 -35 -44 -35 -4 0
-20 -12 -36 -27 -16 -16 -65 -59 -108 -97 -147 -126 -309 -289 -425 -428 -35
-43 -68 -78 -72 -78 -4 0 -8 -6 -8 -12 0 -7 -18 -33 -40 -58 -21 -25 -45 -52
-52 -60 -8 -8 -20 -27 -27 -42 -8 -16 -18 -28 -23 -28 -4 0 -8 -5 -8 -11 0 -6
-14 -28 -30 -48 -48 -57 -50 -60 -50 -71 0 -5 -3 -10 -8 -10 -4 0 -12 -9 -17
-19 -52 -103 -68 -131 -83 -147 -16 -18 -38 -58 -139 -254 -45 -88 -171 -393
-194 -467 -6 -24 -15 -43 -19 -43 -4 0 -7 -6 -6 -12 2 -21 -77 -292 -88 -299
-5 -4 -6 -14 -3 -23 3 -8 2 -18 -4 -22 -6 -3 -8 -12 -6 -18 3 -7 -4 -53 -15
-102 -11 -49 -21 -98 -22 -110 -1 -11 -5 -24 -8 -30 -11 -18 -13 -121 -13
-664 0 -614 1 -630 44 -825 11 -49 20 -102 21 -117 0 -16 4 -28 9 -28 5 0 11
-17 15 -38 3 -22 17 -79 32 -128 14 -49 26 -99 26 -111 0 -13 4 -23 8 -23 4 0
15 -27 25 -60 10 -34 22 -63 27 -66 4 -3 8 -13 8 -22 0 -9 25 -75 56 -147 30
-71 56 -134 57 -140 3 -13 80 -168 87 -175 3 -3 21 -36 40 -75 19 -38 38 -73
43 -76 9 -7 18 -21 56 -90 13 -24 37 -63 52 -86 16 -23 29 -46 29 -52 0 -6 5
-11 10 -11 6 0 10 -7 10 -15 0 -8 4 -15 9 -15 4 0 21 -19 36 -43 110 -165 373
-468 544 -625 149 -137 225 -204 244 -217 8 -5 57 -42 109 -81 88 -67 315
-224 323 -224 3 0 44 -23 92 -52 142 -84 415 -216 506 -244 33 -9 64 -22 70
-29 14 -13 112 -50 172 -64 22 -6 78 -24 125 -40 47 -16 105 -33 130 -36 25
-4 52 -9 60 -12 90 -35 318 -75 515 -91 78 -6 90 -9 87 -24 -3 -17 22 -18 403
-18 390 0 405 1 405 19 0 16 11 20 88 27 48 4 94 7 102 6 8 -1 69 7 135 19 66
11 135 23 153 26 17 3 32 9 32 14 0 5 7 6 15 3 8 -4 21 -1 29 5 7 6 16 8 19 5
3 -3 11 -2 18 2 7 4 22 9 34 10 37 5 175 43 208 58 17 8 72 26 121 41 49 15
99 33 110 40 12 7 49 23 84 35 35 11 71 24 80 29 9 4 42 20 72 34 135 63 169
79 237 115 39 21 77 43 85 49 7 5 38 24 68 40 85 46 242 151 385 258 70 52
129 95 130 95 1 0 31 27 66 60 35 33 66 60 69 60 7 0 330 323 330 330 0 3 27
34 60 70 33 35 60 68 60 72 0 4 9 13 20 20 11 7 20 17 20 22 0 8 47 69 83 109
12 13 19 23 58 85 12 17 26 32 32 32 6 0 7 3 4 6 -5 5 62 113 83 134 3 3 12
19 20 35 15 31 50 86 61 95 3 3 32 59 65 125 32 66 64 123 69 127 7 5 7 8 0 8
-6 0 -6 3 0 8 10 7 37 64 96 205 16 38 51 134 79 215 28 81 53 154 57 162 3 8
8 26 10 40 2 13 9 30 14 36 5 7 9 16 7 20 -2 10 40 200 50 224 3 8 6 20 7 25
1 6 4 20 8 31 4 12 8 39 9 60 1 22 5 41 9 44 7 5 29 221 29 281 0 11 7 19 15
19 13 0 15 51 15 400 0 328 -2 400 -13 400 -10 0 -17 36 -25 147 -6 80 -16
151 -21 156 -5 5 -7 16 -4 23 3 8 2 22 -2 32 -4 9 -10 35 -12 57 -2 22 -8 44
-12 50 -7 8 -27 89 -56 219 -1 6 -5 18 -8 26 -4 8 -9 26 -11 40 -6 30 -53 176
-66 205 -19 42 -69 181 -76 210 -4 17 -10 32 -15 35 -6 4 -76 150 -79 165 0 3
-19 39 -40 82 -22 43 -40 83 -40 90 0 6 -6 16 -12 20 -12 8 -32 41 -66 108 -8
17 -30 51 -48 78 -19 26 -34 49 -34 52 0 2 -11 16 -25 31 -13 14 -22 30 -19
35 3 5 -1 12 -10 15 -8 3 -12 12 -9 20 3 8 1 14 -5 14 -5 0 -19 15 -29 33 -11
17 -31 44 -44 60 -13 15 -36 42 -51 59 -16 17 -28 36 -28 41 0 5 -10 20 -22
33 -13 12 -35 36 -50 51 -16 16 -28 31 -28 35 0 9 -40 52 -132 144 -43 42 -78
81 -78 86 0 5 -19 26 -42 46 -23 20 -59 53 -79 72 -20 19 -69 64 -109 100 -40
36 -80 73 -89 83 -8 9 -21 17 -28 17 -7 0 -18 9 -25 20 -7 11 -19 20 -26 20
-7 0 -15 7 -18 15 -4 8 -13 15 -20 15 -8 0 -17 7 -20 15 -4 8 -10 15 -15 15
-13 0 -99 63 -99 72 0 4 -5 8 -10 8 -6 0 -35 18 -65 40 -30 22 -59 40 -65 40
-5 0 -10 4 -10 9 0 5 -10 13 -22 17 -13 4 -41 18 -63 33 -91 59 -201 121 -214
121 -6 0 -11 5 -11 12 0 6 -2 9 -5 6 -3 -3 -43 14 -88 39 -45 24 -100 50 -122
58 -22 7 -68 27 -102 44 -34 17 -65 31 -69 31 -3 0 -50 16 -103 37 -53 20
-103 37 -111 38 -8 1 -28 7 -43 14 -16 6 -70 23 -120 37 -51 14 -99 28 -107
31 -8 3 -24 7 -35 9 -11 2 -51 10 -90 19 -270 61 -218 58 -885 61 -558 2 -625
1 -725 -16z m930 -316 c83 -4 166 -9 185 -11 19 -2 60 -6 90 -8 30 -2 78 -9
105 -15 28 -6 61 -12 75 -15 52 -9 81 -15 143 -31 12 -3 31 -7 42 -9 42 -9
114 -30 295 -86 332 -104 722 -302 1005 -509 44 -32 103 -75 131 -94 28 -19
62 -47 75 -61 13 -15 37 -35 53 -45 42 -27 356 -332 356 -346 0 -6 17 -27 38
-46 42 -40 72 -75 87 -99 6 -9 24 -34 42 -55 59 -72 79 -99 159 -219 125 -186
284 -469 271 -481 -3 -3 -213 221 -467 498 -471 513 -536 580 -556 576 -7 -2
-332 -372 -723 -823 -391 -451 -713 -820 -715 -820 -3 0 -153 147 -335 328
-181 180 -335 327 -340 327 -6 0 -14 -6 -18 -14 -16 -26 -934 -1026 -943
-1026 -13 0 -1393 1416 -1401 1438 -4 9 -23 32 -42 50 l-34 33 -764 -810
c-420 -446 -767 -811 -770 -811 -4 0 -6 8 -4 18 2 9 9 46 15 82 22 122 51 255
71 330 30 110 90 293 99 305 4 6 20 46 35 90 37 112 153 351 250 514 406 686
1045 1248 1765 1554 195 83 516 188 645 212 11 2 31 6 45 10 14 4 34 8 45 11
11 2 52 10 90 17 39 8 77 15 85 16 23 2 88 8 165 16 103 10 392 22 450 19 28
-2 118 -7 200 -10z m1651 -2553 c-6 -189 -5 -223 8 -249 18 -36 50 -49 72 -31
9 7 45 56 82 108 141 205 214 306 220 308 4 2 33 -42 65 -96 32 -55 65 -102
73 -105 40 -15 85 -5 121 27 80 69 51 84 281 -146 193 -193 210 -208 245 -209
21 -1 43 4 49 10 9 9 -1 81 -38 287 -28 152 -48 278 -44 280 8 5 511 -112 521
-122 15 -15 99 -313 128 -456 121 -580 104 -1146 -49 -1737 -37 -140 -158
-481 -179 -503 -5 -4 -370 351 -812 790 -442 439 -954 947 -1137 1128 l-334
330 27 20 c15 11 176 147 358 302 183 155 336 282 341 282 5 1 6 -91 2 -218z
m-3250 -426 c442 -301 464 -317 449 -338 -5 -8 -337 -372 -736 -808 -399 -437
-873 -956 -1054 -1154 -444 -487 -437 -479 -446 -463 -5 7 -40 64 -78 125 -39
62 -100 173 -137 245 -37 73 -73 146 -81 161 -8 15 -30 70 -48 121 -18 51 -42
113 -53 137 -11 24 -27 69 -36 99 -9 30 -23 78 -31 105 -55 184 -116 508 -135
715 -15 169 -13 562 2 583 12 16 1029 528 1036 522 2 -2 -44 -178 -102 -391
-59 -214 -106 -397 -106 -406 0 -19 41 -35 60 -23 5 3 144 171 306 373 163
202 309 380 324 395 l27 28 202 -240 c126 -149 210 -241 221 -241 10 0 28 8
40 18 l23 19 -27 324 c-15 178 -29 335 -32 347 -3 14 -1 22 5 20 6 -1 189
-124 407 -273z m2424 -1285 c201 -224 376 -413 389 -419 30 -15 58 8 66 53 3
17 -16 179 -43 359 -26 181 -45 330 -42 332 3 1 127 -51 275 -116 149 -66 326
-144 395 -174 69 -29 173 -75 232 -102 l106 -48 472 -468 c364 -360 470 -471
465 -485 -6 -17 -105 -200 -128 -237 -234 -381 -455 -651 -747 -909 -520 -462
-1117 -760 -1785 -890 -242 -47 -392 -60 -710 -61 -427 0 -650 29 -1060 139
-441 119 -904 361 -1315 687 -149 118 -467 439 -593 599 -59 74 -107 137 -107
140 0 3 133 152 296 330 163 179 421 461 572 627 227 249 283 305 321 321 25
11 127 56 226 100 624 275 754 332 765 332 8 0 10 -7 5 -17 -16 -42 -173 -453
-235 -618 -37 -99 -89 -235 -114 -301 -52 -137 -56 -168 -25 -185 17 -9 26 -8
45 7 13 11 199 231 415 489 503 603 491 589 500 573 4 -7 28 -96 53 -198 55
-218 60 -230 96 -230 15 0 38 10 51 23 14 12 76 120 139 240 63 119 117 217
121 217 3 0 163 -226 355 -502 192 -276 361 -516 375 -532 25 -28 29 -30 52
-17 14 8 28 19 31 26 2 6 -11 77 -30 156 -65 270 -274 1158 -274 1164 0 26 73
-50 390 -405z"/>
</g>
</svg>
